<svg xmlns="http://www.w3.org/2000/svg" xml:space="preserve" style="fill-rule:evenodd;clip-rule:evenodd;stroke-linejoin:round;stroke-miterlimit:2" viewBox="0 0 821 173"><path d="M172.541 436.744v-89.12h19.054v72.928h30.437v16.192zM249.486 377.027v31.411q0 7.913 3.075 11.322 3.074 3.41 10.013 3.409 6.879 0 9.984-3.439 3.104-3.44 3.104-11.292v-31.411h17.349v31.411q0 15.766-7.365 23.223t-22.828 7.457q-15.767 0-23.163-7.426t-7.396-23.254v-31.411zM308.839 352.494q0-4.139 2.982-7.122t7.123-2.983q4.2 0 7.213 2.953t3.014 7.152q0 4.201-3.014 7.184-3.013 2.982-7.213 2.982-4.14 0-7.123-3.043-2.982-3.044-2.982-7.123m1.521 84.25v-59.717h17.289v59.717zM404.959 435.77q0 9.436-1.126 13.271-1.127 3.834-3.866 6.635-3.896 4.2-9.983 6.209t-14.793 2.009q-14.549 0-22.097-4.626t-8.218-14.062h19.054q.426 3.47 3.165 5.113 2.74 1.644 8.096 1.644 7.062 0 10.197-3.653t3.135-12.175v-8.522q-3.47 5.54-8.37 8.218t-11.597 2.679q-12.297 0-19.662-8.614-7.366-8.614-7.366-23.224 0-14.853 7.183-23.254 7.183-8.4 19.845-8.4 6.513 0 11.597 3.013 5.082 3.013 8.492 8.857v-9.861h16.314zm-15.706-28.976q0-7.913-4.017-12.479t-10.958-4.566q-7.122 0-11.14 4.535-4.017 4.536-4.017 12.51t3.956 12.418 11.08 4.444q7.122 0 11.109-4.444 3.987-4.443 3.987-12.418M421.212 352.494q0-4.139 2.983-7.122t7.122-2.983q4.201 0 7.214 2.953t3.013 7.152q0 4.201-3.013 7.184-3.013 2.982-7.214 2.982-4.138 0-7.122-3.043-2.982-3.044-2.983-7.123m1.522 84.25v-59.717h17.288v59.717z" style="fill:#fff" transform="matrix(1.05979 0 0 1.05979 -182.862 -362.859)"/><path d="M569.197 370.818q-5.783-5.175-11.87-7.579-6.088-2.405-13.027-2.405-14.245 0-22.706 8.523t-8.462 22.888q0 14.063 7.853 22.311t21.428 8.248q7.73 0 14.366-2.587t12.296-7.762l-.121 19.541q-6.088 3.591-12.753 5.357-6.666 1.765-14.032 1.765-21.306 0-34.972-13.24t-13.666-33.633q0-20.332 13.696-33.541 13.696-13.21 35.307-13.21 7.245 0 14.001 1.522 6.758 1.522 13.332 4.687z" style="fill:#fff" transform="matrix(1.1686 -.4981 .4981 1.1686 -444.619 -123.314)"/><path d="M629.402 406.794q0-8.035-4.048-12.723-4.048-4.687-10.927-4.687-7.062 0-11.11 4.657-4.048 4.658-4.048 12.753 0 8.097 3.987 12.601t11.049 4.505q7.183 0 11.14-4.505 3.957-4.504 3.957-12.601m15.827 29.95h-16.801l.243-8.583q-3.53 5.661-8.492 8.309-4.96 2.649-12.083 2.648-11.87 0-19.145-8.826-7.275-8.828-7.275-23.315 0-15.097 7.153-23.528t19.876-8.431q6.635 0 11.657 2.983t8.431 8.887v-9.861h16.436zM655.699 426.274l13.332-6.879q.669 3.47 3.591 5.479t7.244 2.009q4.261 0 6.697-1.553 2.434-1.552 2.434-4.291 0-4.322-8.644-7.244a124 124 0 0 1-4.261-1.522q-10.531-3.957-14.579-7.975t-4.048-9.922q0-8.766 6.878-14.184t18.141-5.418q8.035 0 13.91 3.227 5.874 3.226 8.552 9.131l-12.722 6.331q-1.035-3.349-3.592-5.083-2.556-1.735-6.392-1.735-3.834 0-6.209 1.583t-2.374 4.139q0 4.443 11.81 8.279 1.4.426 2.13.669 9.801 3.227 13.941 7.518 4.139 4.292 4.139 10.927 0 8.888-6.879 14.123-6.88 5.235-18.566 5.235-9.254 0-15.797-3.439t-8.736-9.405M720.53 436.744v-46.142h-8.339v-13.575h8.339v-19.845h17.349v19.845h8.34v13.575h-8.34v46.142zM773.673 392.367q2.617-8.705 7.518-13.027t12.145-4.322q1.642 0 5.418.609l1.095.182-2.617 18.628a21.7 21.7 0 0 0-3.927-1.187 21.2 21.2 0 0 0-4.17-.396q-7.913 0-11.383 4.048t-3.47 13.545v26.297h-17.349v-59.717h17.106zM852.871 406.977q0-7.305-4.262-11.658-4.26-4.352-11.444-4.352-7.183 0-11.383 4.322-4.201 4.321-4.201 11.688 0 7.305 4.201 11.688t11.383 4.383q7.122 0 11.414-4.383t4.292-11.688m17.653.121q0 13.758-9.405 22.889t-23.832 9.131q-14.548 0-23.985-9.131-9.435-9.13-9.435-22.889 0-13.696 9.496-22.888t23.924-9.192q14.489 0 23.862 9.07 9.375 9.07 9.375 23.01" style="fill:#fff" transform="matrix(1.05979 0 0 1.05979 -182.862 -362.859)"/><text x="192.17" y="644.459" style="font-family:&quot;FuturaBT-Heavy&quot;,&quot;Futura Hv BT&quot;,sans-serif;font-size:82.581px;fill:#eb8365" transform="translate(179.316 -144.254)scale(.47789)">virtual.employee@gmail.com</text></svg>