<svg xmlns="http://www.w3.org/2000/svg" xml:space="preserve" style="fill-rule:evenodd;clip-rule:evenodd;stroke-linejoin:round;stroke-miterlimit:2" viewBox="0 0 821 173"><path d="M0 99.997V5.55h20.193v77.288H52.45v17.16zM81.545 36.71V70q0 8.386 3.259 11.999 3.257 3.613 10.612 3.613 7.29 0 10.58-3.645T109.287 70V36.71h18.386V70q0 16.71-7.805 24.611-7.807 7.904-24.193 7.903-16.71 0-24.548-7.87T63.288 70V36.71zM144.447 10.71q0-4.386 3.16-7.547Q150.769.002 155.156 0q4.45 0 7.644 3.13 3.195 3.128 3.194 7.58 0 4.451-3.194 7.613-3.193 3.16-7.644 3.16-4.387 0-7.549-3.225-3.16-3.225-3.16-7.549m1.612 89.287V36.71h18.322v63.287zM246.313 98.965q0 10-1.193 14.065-1.194 4.063-4.097 7.031-4.129 4.452-10.58 6.58-6.45 2.13-15.677 2.13-15.42 0-23.418-4.903-8-4.904-8.71-14.903h20.193q.452 3.677 3.355 5.419 2.902 1.743 8.58 1.742 7.484 0 10.806-3.871 3.323-3.87 3.323-12.903V90.32q-3.677 5.87-8.87 8.71-5.195 2.84-12.291 2.839-13.032 0-20.838-9.129t-7.806-24.613q0-15.74 7.613-24.644 7.612-8.902 21.031-8.902 6.903 0 12.29 3.193t9 9.387V36.71h17.29zm-16.645-30.708q0-8.388-4.257-13.225-4.259-4.84-11.613-4.84-7.548 0-11.806 4.807t-4.257 13.258 4.192 13.16q4.194 4.71 11.743 4.71 7.548 0 11.773-4.71 4.225-4.709 4.225-13.16M263.538 10.71q.001-4.386 3.161-7.547Q269.861.002 274.247 0q4.452 0 7.646 3.13 3.193 3.128 3.193 7.58 0 4.451-3.193 7.613-3.194 3.16-7.646 3.16-4.386 0-7.548-3.225-3.16-3.225-3.16-7.549m1.613 89.287V36.71h18.322v63.287zM405.259 26.508q-9.336-3.166-17.647-2.944-8.312.223-16.421 3.678-16.647 7.095-22.29 21.27-5.643 14.174 1.512 30.962 7.006 16.434 20.29 22.161 13.286 5.728 29.15-1.034 9.034-3.85 15.5-10.18 6.464-6.327 10.502-15.195l9.592 22.896q-5.326 7.23-12.234 12.613-6.91 5.383-15.52 9.052-24.897 10.613-47.463 1.947-22.564-8.666-32.722-32.496-10.128-23.76-.702-46.019 9.426-22.26 34.68-33.023 8.466-3.609 17.12-5.196 8.655-1.588 17.914-1.163zM484.175 68.257q0-8.516-4.29-13.484-4.29-4.966-11.58-4.967-7.484 0-11.774 4.935-4.29 4.936-4.29 13.516t4.225 13.354 11.71 4.774q7.612 0 11.806-4.774 4.193-4.773 4.193-13.354m16.773 31.74h-17.805l.258-9.096q-3.742 6-9 8.806-5.258 2.807-12.806 2.806-12.58 0-20.29-9.353-7.71-9.356-7.71-24.71 0-15.999 7.581-24.934t21.065-8.935q7.031 0 12.354 3.161t8.935 9.419V36.71h17.418zM512.044 88.901l14.13-7.29q.708 3.677 3.805 5.807 3.098 2.129 7.677 2.129 4.516-.001 7.098-1.646 2.58-1.645 2.58-4.548 0-4.58-9.162-7.677a131 131 0 0 1-4.515-1.613q-11.16-4.192-15.451-8.451-4.29-4.258-4.29-10.516 0-9.29 7.29-15.032t19.225-5.742q8.515 0 14.741 3.42t9.064 9.677l-13.483 6.71q-1.096-3.55-3.807-5.387-2.708-1.839-6.774-1.839-4.063 0-6.58 1.678-2.516 1.677-2.516 4.386 0 4.71 12.516 8.774 1.483.452 2.258.71 10.386 3.419 14.774 7.967 4.386 4.549 4.386 11.58 0 9.42-7.29 14.967t-19.676 5.548q-9.807 0-16.741-3.644-6.936-3.645-9.259-9.968M580.751 99.997v-48.9h-8.837V36.71h8.837V15.68h18.387V36.71h8.838v14.387h-8.838v48.9zM637.072 52.967q2.774-9.225 7.967-13.806 5.194-4.58 12.871-4.58 1.74 0 5.742.645l1.16.193-2.773 19.742a23 23 0 0 0-4.162-1.258 22.5 22.5 0 0 0-4.419-.42q-8.386 0-12.063 4.29t-3.678 14.355v27.87h-18.386V36.71h18.129zM721.005 68.45q0-7.74-4.517-12.354-4.515-4.612-12.128-4.612t-12.064 4.58q-4.452 4.58-4.452 12.387 0 7.741 4.452 12.386 4.451 4.646 12.064 4.646 7.548 0 12.096-4.646 4.548-4.644 4.549-12.386m18.708.129q0 14.58-9.967 24.257t-25.257 9.677q-15.418 0-25.419-9.677-9.999-9.676-9.999-24.257 0-14.515 10.064-24.256 10.065-9.742 25.354-9.742 15.355 0 25.289 9.612t9.935 24.386"/><text x="192.17" y="644.459" style="font-family:&quot;FuturaBT-Heavy&quot;,&quot;Futura Hv BT&quot;,sans-serif;font-size:82.581px;fill:#8b0000" transform="translate(179.32 -144.254)scale(.47789)">virtual.employee@gmail.com</text></svg>