<svg xmlns="http://www.w3.org/2000/svg" xml:space="preserve" style="fill-rule:evenodd;clip-rule:evenodd;stroke-linejoin:round;stroke-miterlimit:2" viewBox="0 0 300 258"><path d="M852 1512c-72-45-97-120-152-452-30-177-35-197-59-218-44-38-223-121-292-136-95-20-146-56-78-56 42 0 165 51 281 116 53 29 98 54 101 54 5 0-12-80-33-160-9-34-15-38-81-59-155-50-373-174-448-256C-60 182-15-11 170 2c46 3 71 13 132 51 41 26 93 66 115 89 87 96 172 247 222 398l21 66 113 27c61 14 159 36 217 49 58 12 112 28 121 35 21 17 25 17 49-7s48-25 93-4c33 16 35 16 56-5 25-25 51-27 91-6 27 14 30 14 59-15 16-17 38-30 48-31 41-3 69 4 92 22 25 20 25 20 49-4l24-24-46-67c-25-36-51-85-57-109-7-23-14-44-15-45-1-2-47-10-101-17-282-39-328-48-361-73-18-13-31-26-29-28s53 5 113 17 168 29 239 38l130 17 6-46c20-148 146-213 282-144 112 56 153 108 145 187l-4 40 241-6c257-7 442-25 569-57l80-20 32 22c18 13 30 26 26 30-12 12-229 47-357 58-66 5-231 10-366 10h-246l-36 52c-20 29-63 79-96 112l-59 59 28 24c43 35 135 64 213 66l69 2 18-49c33-85 93-126 163-111 34 8 123 51 172 84 22 15 39 19 71 14 24-3 50 0 63 6 19 11 25 9 42-13 15-19 25-24 37-17 9 5 24 5 38-1 18-9 33-5 76 21 31 17 60 42 67 57l12 27 29-29c23-23 27-35 23-61-3-20-11-33-20-33-21 0-74-40-68-51 4-5 22-9 40-9 33 0 34-1 24-26-5-15-8-29-5-31 11-11 69 31 78 58 6 16 23 36 38 44 42 22 46 49 16 95-14 22-26 53-26 70 0 28 3 31 23 25 40-12 64-49 71-112 4-33 13-69 20-79 14-18 15-18 60 4 44 21 48 21 72 6 24-17 48-14 111 12 7 3 13-1 13-10 0-22 40-46 76-46 34 0 154 58 192 93 12 11 34 45 48 74 22 45 26 63 22 119-4 58-8 70-32 90-39 34-100 32-176-6-103-52-149-121-150-222 0-51-2-58-20-58-15 0-20 7-20 28 0 16-3 32-7 35-8 8-47-15-85-51-15-14-30-24-32-21-3 2-9 33-15 68-16 99-47 131-127 131-42 0-41-16-13 253 15 148 24 204 35 210 14 8 19 48 8 60-4 3-26-7-49-23-49-34-47-24-66-310-6-96-14-181-18-189-6-12-45-29-133-58-13-4-19 4-27 34-19 70-80 106-136 81-92-42-127-81-141-160-8-40-35-72-92-105-76-45-164-28-198 38-18 36-18 39 7 39 11 0 35 10 52 22 27 20 28 22 11 29-10 4-38 8-61 8-38 1-43 4-50 29-12 44-6 211 11 289 20 92 53 163 75 163 35 0 81-71 81-125 0-13 4-35 10-50l10-26 35 26c34 27 34 27 30 95-4 69-14 139-22 153-3 4-12 2-20-5-9-7-38-13-64-13-136 0-224-166-224-422V822l-59-13c-61-13-177-64-229-101l-30-21-18 24c-33 43-33 59 0 93 31 32 40 56 20 56-19 0-69-34-69-46 0-6-11-19-25-28-19-12-25-25-25-51 0-32-2-35-31-35-23 0-40 9-64 36l-34 36-34-21c-19-11-39-21-45-21-19 0-42 31-42 56 0 13-2 24-5 24-19 0-75-31-87-49-38-54-76 29-58 126 5 31 9 57 7 58-1 1-16-2-33-6-20-6-46-29-77-68-25-33-75-84-111-113-61-51-69-54-190-82-70-15-129-26-133-23-3 3 7 54 22 113l26 107 72 72c128 127 191 267 192 425 0 153-49 201-143 142m47-54c19-31 26-161 12-229-16-74-61-167-117-240-25-33-48-58-50-56-5 5 42 272 66 376 21 89 53 171 67 171 5 0 15-10 22-22m2666-522c33-33 40-83 21-148-17-61-63-114-106-123-32-7-70 9-70 29 0 7-7 27-16 45-26 52-4 141 49 199 29 31 90 30 122-2m-925-64c23-29 26-52 6-52-8 0-28-16-45-36-19-24-35-35-45-31-23 9-20 20 20 68 36 43 34 60-6 39-21-11-21-11-6 18 18 36 45 34 76-6M1133 750c-12-12-103-29-103-20 0 5 24 29 53 54l52 45 3-36c2-20 0-39-5-43m1617 4c-11-28-12-28-26-10-19 26-18 31 9 43 27 13 31 5 17-33m-900-300c0-10-105-24-187-24-28 0-33 4-33 23 0 23 42 120 62 145 9 10 26-1 85-60 40-40 73-78 73-84M574 512C507 332 381 133 299 78c-68-45-166-32-205 28-26 38-24 118 5 172 58 112 170 195 353 262 73 27 136 46 140 44 4-3-4-35-18-72m1320-128c3-9 6-38 6-64 0-73-29-102-106-108-50-3-65 0-93 20-42 28-68 71-73 118l-3 35 75 6c152 11 187 10 194-7" style="fill:#fff;fill-rule:nonzero" transform="matrix(.08931 -.04498 -.04498 -.08931 8.97 262.67)"/></svg>